<svg xmlns="http://www.w3.org/2000/svg" viewBox="0.0 0 3772.0 922.0" role="img" aria-label="OmegaX"><path d="M304 722Q213 722 144 681Q75 640 37.5 559.5Q0 479 0 361Q0 243 37.5 162.5Q75 82 144 41Q213 0 304 0Q396 0 464.5 41Q533 82 570.5 162.5Q608 243 608 361Q608 479 570.5 559.5Q533 640 464.5 681Q396 722 304 722ZM304 605Q355 605 391.5 582Q428 559 448 516.5Q468 474 468 415L468 307Q468 247 448 205Q428 163 391.5 140Q355 117 304 117Q255 117 218 140Q181 163 160.5 205Q140 247 140 307L140 415Q140 474 160.5 516.5Q181 559 218 582Q255 605 304 605ZM847 710L719 710L719 188L847 188L847 275L852 275Q867 234 900.5 205Q934 176 992 176Q1046 176 1085.5 202Q1125 228 1143 281L1145 281Q1159 238 1201 207Q1243 176 1305 176Q1381 176 1423 229.5Q1465 283 1465 380L1465 710L1337 710L1337 393Q1337 337 1316.5 309Q1296 281 1253 281Q1228 281 1205.5 290.5Q1183 300 1169.5 318.5Q1156 337 1156 365L1156 710L1028 710L1028 393Q1028 337 1007 309Q986 281 944 281Q920 281 897.5 290.5Q875 300 861 318.5Q847 337 847 365ZM1803 722Q1726 722 1671 688.5Q1616 655 1586.5 593.5Q1557 532 1557 448Q1557 366 1586 304.5Q1615 243 1669 209.5Q1723 176 1799 176Q1881 176 1933.5 212Q1986 248 2011.5 307.5Q2037 367 2037 439L2037 481L1690 481L1690 494Q1690 550 1722 585Q1754 620 1817 620Q1864 620 1895 599.5Q1926 579 1950 549L2019 626Q1987 669 1931.5 695.5Q1876 722 1803 722ZM1801 272Q1767 272 1742 287.5Q1717 303 1703.5 330.5Q1690 358 1690 394L1690 402L1904 402L1904 393Q1904 356 1892 329.5Q1880 303 1857 287.5Q1834 272 1801 272ZM2606 754Q2606 808 2579 845.5Q2552 883 2492 902.5Q2432 922 2332 922Q2244 922 2190.5 907.5Q2137 893 2113 865Q2089 837 2089 799Q2089 755 2114 730.5Q2139 706 2182 699L2182 688Q2150 679 2132.5 656Q2115 633 2115 601Q2115 561 2144 539Q2173 517 2211 509L2211 505Q2164 483 2140 444Q2116 405 2116 353Q2116 300 2140.5 260Q2165 220 2213.5 198Q2262 176 2332 176Q2358 176 2381 179Q2404 182 2423 189L2423 172Q2423 134 2442 115Q2461 96 2497 96L2578 96L2578 194L2467 194L2467 208Q2508 231 2528 268.5Q2548 306 2548 353Q2548 405 2523.5 445Q2499 485 2451 506.5Q2403 528 2332 528Q2310 528 2289.5 525.5Q2269 523 2252 519Q2237 526 2226 537.5Q2215 549 2215 566Q2215 586 2232 595.5Q2249 605 2283 605L2423 605Q2519 605 2562.5 644Q2606 683 2606 754ZM2486 769Q2486 744 2466 730Q2446 716 2397 716L2219 716Q2205 727 2198.5 741Q2192 755 2192 770Q2192 800 2217 817Q2242 834 2302 834L2366 834Q2428 834 2457 818Q2486 802 2486 769ZM2332 441Q2378 441 2402 420.5Q2426 400 2426 361L2426 344Q2426 304 2402 284Q2378 264 2332 264Q2287 264 2262.5 284Q2238 304 2238 344L2238 361Q2238 400 2262.5 420.5Q2287 441 2332 441ZM3120 710L3049 710Q3020 710 2997.5 696.5Q2975 683 2962.5 657Q2950 631 2950 596L2950 585L2982 620L2946 620Q2933 670 2892.5 696Q2852 722 2794 722Q2714 722 2671 679.5Q2628 637 2628 568Q2628 514 2654.5 479Q2681 444 2731 426Q2781 408 2851 408L2940 408L2940 370Q2940 327 2917 302.5Q2894 278 2843 278Q2798 278 2770.5 297.5Q2743 317 2724 344L2648 276Q2677 231 2725 203.5Q2773 176 2852 176Q2957 176 3012.5 224.5Q3068 273 3068 362L3068 608L3120 608ZM2940 485L2858 485Q2808 485 2783 501.5Q2758 518 2758 549L2758 566Q2758 597 2779 613Q2800 629 2837 629Q2866 629 2889 620.5Q2912 612 2926 595Q2940 578 2940 554ZM3153 710L3379 351L3163 12L3317 12L3465 260L3468 260L3618 12L3762 12L3544 352L3772 710L3618 710L3458 442L3455 442L3297 710Z" fill="#142f6b" fill-rule="nonzero"/></svg>